<?xml version="1.0" standalone="no"?>
<!DOCTYPE svg PUBLIC "-//W3C//DTD SVG 20010904//EN"
 "http://www.w3.org/TR/2001/REC-SVG-20010904/DTD/svg10.dtd">
<svg version="1.0" xmlns="http://www.w3.org/2000/svg"
 width="300.000000pt" height="300.000000pt" viewBox="0 0 300.000000 300.000000"
 preserveAspectRatio="xMidYMid meet">
<metadata>
Created by potrace 1.10, written by Peter Selinger 2001-2011
</metadata>
<g transform="translate(0.000000,300.000000) scale(0.100000,-0.100000)"
fill="#000000" stroke="none">
<path d="M973 2150 c-12 -5 -29 -19 -37 -32 -8 -13 -72 -189 -143 -393 -134
-389 -143 -428 -110 -491 31 -59 95 -94 174 -94 91 1 139 37 307 234 75 88 86
106 66 106 -10 0 -69 -58 -100 -98 -57 -74 -150 -167 -183 -184 -49 -25 -141
-29 -181 -8 -16 8 -38 27 -49 41 -21 29 -31 107 -15 127 6 6 7 12 3 12 -4 0
-2 7 5 15 7 8 9 15 4 15 -5 0 -4 4 1 8 6 4 19 34 30 67 10 33 22 67 26 75 7
14 87 233 93 255 2 6 6 24 11 40 4 17 11 35 15 40 3 6 17 46 30 90 14 44 28
82 32 83 5 2 8 10 8 17 0 17 48 48 65 41 8 -3 15 -1 17 5 6 18 104 -45 164
-106 l61 -62 34 18 c19 10 45 34 59 53 14 20 31 36 38 36 6 0 12 4 12 9 0 14
66 41 102 41 41 0 95 -35 128 -83 23 -34 70 -66 70 -49 0 14 -107 135 -131
148 -36 20 -107 17 -157 -7 -26 -13 -62 -44 -90 -79 -26 -32 -50 -58 -53 -57
-3 1 -30 31 -60 66 -30 35 -71 73 -93 84 -43 23 -120 31 -153 17z"/>
<path d="M1905 2133 c-63 -25 -116 -64 -152 -111 l-33 -44 57 -68 c32 -37 87
-103 123 -146 36 -44 79 -94 95 -113 54 -62 137 -156 153 -171 13 -13 13 -13
4 5 -12 22 -61 87 -172 226 -42 52 -83 105 -92 119 -9 14 -32 42 -51 63 -36
39 -39 65 -11 88 8 6 14 15 14 20 0 5 -15 -8 -34 -28 l-33 -37 -8 24 c-7 21 0
32 50 77 61 55 80 62 51 17 -10 -14 -15 -28 -13 -31 3 -2 11 6 18 19 35 68 89
76 120 18 22 -39 89 -187 89 -195 0 -5 8 -25 59 -137 11 -26 21 -50 21 -52 0
-3 14 -35 31 -73 16 -37 34 -77 39 -88 4 -11 18 -42 30 -68 12 -27 22 -66 22
-88 -1 -43 -38 -119 -59 -119 -7 0 -13 -4 -13 -8 0 -13 -47 -32 -80 -32 -35 0
-129 41 -151 67 -54 61 -250 243 -262 243 -8 0 -26 9 -41 21 -14 11 -26 16
-26 10 0 -5 5 -13 10 -16 6 -4 8 -16 4 -28 -10 -35 -90 -142 -119 -161 -42
-28 -98 -28 -134 -2 -41 30 -118 145 -104 154 6 4 13 16 17 27 4 11 18 33 31
50 l24 29 41 -23 c36 -20 45 -21 70 -11 16 7 35 18 41 26 15 18 45 18 52 0 7
-18 -48 -90 -89 -117 -22 -14 -25 -19 -11 -19 32 0 55 18 97 77 l40 57 -24 25
c-13 14 -27 40 -30 56 -4 17 -18 43 -32 58 -14 15 -22 32 -19 37 9 15 -5 12
-21 -5 -9 -8 -23 -15 -33 -15 -32 0 -95 -79 -78 -96 3 -3 24 15 48 41 l43 45
37 -36 37 -36 -39 -40 c-40 -41 -46 -41 -86 -5 -12 10 -26 18 -32 16 -18 -7
-131 -144 -131 -160 0 -28 94 -151 130 -171 48 -26 134 -21 179 11 48 34 133
160 125 185 -4 11 58 -47 137 -128 78 -81 161 -157 182 -168 137 -69 285 1
295 141 4 53 -1 70 -76 247 -44 104 -106 252 -137 329 -74 179 -91 212 -114
225 -25 13 -27 12 -76 -7z"/>
<path d="M1140 1951 c5 -11 15 -23 20 -26 18 -11 11 -23 -40 -71 -27 -26 -50
-52 -50 -58 0 -9 -54 -82 -123 -166 -12 -15 -98 -123 -120 -150 -64 -81 -77
-100 -77 -111 0 -8 12 -1 28 16 64 70 308 372 322 399 8 16 34 44 57 63 24 20
43 40 43 45 0 12 -53 78 -63 78 -4 0 -3 -9 3 -19z"/>
<path d="M1888 1028 c-13 -13 -15 -16 -5 -8 24 19 98 20 120 1 11 -8 17 -28
17 -52 0 -30 -7 -45 -35 -73 -19 -20 -35 -40 -35 -46 0 -5 18 -10 40 -10 33 0
40 -3 40 -20 0 -18 -7 -20 -85 -20 -106 0 -109 10 -25 90 65 62 72 83 38 101
-23 12 -23 12 -4 -9 18 -21 18 -22 -43 -85 -36 -38 -61 -72 -61 -85 0 -21 4
-22 95 -22 l95 0 0 30 c0 29 -2 30 -42 30 l-42 0 31 33 c61 64 66 95 24 138
-37 37 -89 40 -123 7z"/>
<path d="M2186 1029 c-14 -11 -26 -26 -26 -32 1 -7 9 -2 19 10 40 48 115 38
145 -20 13 -26 15 -27 10 -7 -15 63 -96 90 -148 49z"/>
<path d="M693 1033 l27 -4 0 -114 0 -114 -27 -4 c-21 -4 -19 -4 7 -3 l35 1 3
123 3 122 -38 -1 c-30 -2 -32 -3 -10 -6z"/>
<path d="M782 918 l3 -123 70 -3 c56 -2 77 2 103 18 71 44 79 144 16 200 -32
28 -40 30 -115 30 l-80 0 3 -122z m181 92 c36 -29 51 -79 37 -127 -15 -55 -51
-77 -132 -81 l-68 -4 0 116 0 116 69 0 c53 0 74 -4 94 -20z"/>
<path d="M850 915 c0 -71 1 -75 23 -74 16 1 18 2 5 6 -15 4 -18 16 -18 69 0
58 2 64 21 64 41 0 59 -18 59 -60 0 -29 -6 -43 -22 -54 -17 -12 -18 -16 -6
-16 45 0 59 89 19 121 -13 11 -36 19 -52 19 l-29 0 0 -75z"/>
<path d="M1050 915 l0 -125 90 0 90 0 0 30 c0 30 -1 30 -55 30 -48 0 -55 3
-55 19 0 17 8 20 48 23 43 3 47 5 47 28 0 23 -4 25 -47 28 -33 2 -48 8 -48 17
0 10 16 15 53 17 48 3 52 5 55 31 l3 27 -90 0 -91 0 0 -125z m170 95 c0 -18
-7 -20 -55 -20 -52 0 -55 -1 -55 -25 0 -23 3 -25 50 -25 43 0 50 -3 50 -20 0
-17 -7 -20 -50 -20 -49 0 -50 -1 -50 -30 0 -30 1 -30 55 -30 48 0 55 -2 55
-20 0 -18 -7 -20 -80 -20 l-80 0 0 115 0 115 80 0 c73 0 80 -2 80 -20z"/>
<path d="M1337 993 c-9 -25 -15 -48 -13 -50 2 -2 12 16 21 41 15 40 21 46 47
46 26 0 32 -6 50 -50 11 -28 23 -49 25 -46 2 2 -5 27 -18 55 -20 48 -24 51
-58 51 -35 0 -38 -3 -54 -47z"/>
<path d="M1552 1013 c3 -26 7 -28 51 -31 26 -2 47 -5 47 -8 0 -3 -22 -35 -50
-71 -27 -36 -50 -77 -50 -89 0 -24 1 -24 105 -24 l105 0 0 30 c0 28 -1 29 -55
32 l-55 3 55 70 c30 39 55 80 55 93 0 21 -3 22 -106 22 l-105 0 3 -27z m198 2
c0 -8 -25 -47 -55 -86 -30 -39 -55 -75 -55 -80 0 -5 25 -9 55 -9 48 0 55 -2
55 -20 0 -19 -7 -20 -95 -20 -122 0 -123 10 -18 134 18 22 33 43 33 48 0 4
-25 8 -55 8 -48 0 -55 2 -55 20 0 19 7 20 95 20 77 0 95 -3 95 -15z"/>
<path d="M673 920 c0 -41 2 -58 4 -37 2 20 2 54 0 75 -2 20 -4 3 -4 -38z"/>
<path d="M1852 981 c7 -26 44 -32 64 -10 10 11 12 19 5 19 -6 0 -14 -6 -17
-14 -6 -16 -33 -11 -47 8 -6 7 -7 6 -5 -3z"/>
<path d="M2210 971 c-27 -51 5 -143 44 -128 19 7 36 48 35 80 0 12 -6 2 -12
-23 -9 -34 -17 -45 -32 -45 -30 0 -43 62 -22 104 16 33 5 44 -13 12z"/>
<path d="M2146 964 c-8 -22 -7 -87 2 -101 4 -6 7 18 7 53 0 35 -1 64 -1 64 -1
0 -5 -7 -8 -16z"/>
<path d="M1365 920 c-9 -27 1 -40 30 -40 28 0 37 11 24 30 -6 10 -9 11 -9 3 0
-7 -9 -13 -21 -13 -16 0 -19 4 -14 20 3 11 4 20 1 20 -2 0 -7 -9 -11 -20z"/>
<path d="M1304 914 c-4 -10 -15 -41 -26 -67 -10 -26 -18 -50 -18 -52 0 -3 16
-5 35 -5 25 0 37 6 45 21 7 11 9 24 5 27 -3 3 -8 -4 -12 -16 -4 -16 -13 -22
-33 -22 l-29 0 25 62 c13 34 22 64 19 66 -2 3 -8 -4 -11 -14z"/>
<path d="M1476 900 c4 -14 13 -37 20 -52 20 -38 17 -48 -11 -48 -17 0 -29 7
-35 23 -5 12 -9 17 -9 10 -2 -29 12 -43 45 -43 42 0 43 14 8 85 -13 28 -21 39
-18 25z"/>
<path d="M2315 836 c-17 -26 -28 -32 -64 -34 -34 -3 -49 2 -68 20 -19 17 -23
19 -17 5 7 -19 54 -47 79 -47 29 0 71 28 83 56 18 37 11 38 -13 0z"/>
<path d="M2066 845 c-11 -29 -7 -44 15 -55 27 -15 51 5 47 39 -2 20 -9 27 -29
29 -17 2 -29 -3 -33 -13z m52 -23 c3 -18 -1 -22 -22 -22 -19 0 -26 5 -26 18 0
39 43 43 48 4z"/>
</g>
</svg>
